<svg height="62" width="86" xmlns="http://www.w3.org/2000/svg" xmlns:xlink="http://www.w3.org/1999/xlink"><linearGradient id="a"><stop offset="0" stop-color="#fff" stop-opacity=".6"/><stop offset=".5337" stop-color="#fff" stop-opacity=".8"/><stop offset="1" stop-color="#fff"/></linearGradient><linearGradient id="b" x1=".21%" x2="97.974%" xlink:href="#a" y1="49.92%" y2="49.92%"/><linearGradient id="c"><stop offset="0" stop-color="#fff"/><stop offset=".5337" stop-color="#fff" stop-opacity=".8"/><stop offset="1" stop-color="#fff" stop-opacity=".6"/></linearGradient><linearGradient id="d" x1="-.087%" x2="99.628%" xlink:href="#c" y1="50.017%" y2="50.017%"/><linearGradient id="e" x1="-.031%" x2="99.967%" xlink:href="#c" y1="49.894%" y2="49.894%"/><linearGradient id="f" x1=".257%" x2="100.28%" xlink:href="#a" y1="49.94%" y2="49.94%"/><g fill="none"><path d="m0 0h86v62h-86z" fill="#564e8e" fill-opacity=".9"/><path d="m32.073 26.688v3.11h-1.16v-6.718h1.16v2.523h3.163v-2.523h1.16v6.717h-1.16v-3.109zm25.044 3.08h-1.19v-5.603h-2.263v-1.085h5.687v1.085h-2.234zm7.342 0h-1.19v-5.603h-2.264v-1.085h5.688v1.085h-2.233zm-22.606-3.578s0-.089.058-.177c.116-.264 1.799-2.933 1.799-2.933h1.364l-2.641 4.077v2.64h-1.19v-2.64l-2.64-4.077h1.363s1.683 2.67 1.8 2.933c.058.118.058.176.087.176zm9.576 3.578h1.248l-2.931-6.776h-1.074l-2.93 6.776h1.189l.784-1.877h2.901zm-3.25-2.963.986-2.376.987 2.376zm-14.104 9.563c1.132-.176 1.8-.88 1.8-1.848v-.088c0-1.115-.93-1.848-2.293-1.848h-2.699v6.453h.552v-2.581h1.973l2.002 2.552v.03h.726l-2.06-2.67zm-2.611-.41v-2.818h2.089c1.103 0 1.77.499 1.77 1.35v.088c0 .85-.696 1.408-1.8 1.408h-2.06v-.03zm7.109 2.552v-2.435h3.599v-.528h-3.599v-2.407h4.005v-.528h-4.556v6.424h4.614v-.528zm8.793-2.993v.528h2.09v1.878a3.102 3.102 0 0 1 -1.945.704c-1.596 0-2.64-1.144-2.64-2.816v-.03c0-1.554 1.131-2.786 2.553-2.786 1.016 0 1.567.381 2.003.762l.029.03.377-.44-.03-.03c-.725-.586-1.392-.85-2.32-.85-1.974 0-3.164 1.701-3.164 3.344v.029c0 1.965 1.335 3.315 3.221 3.315 1.277 0 2.177-.675 2.496-.968h.03v-2.64h-2.7zm5.485 2.993v-2.435h3.598v-.528h-3.598v-2.407h4.005v-.528h-4.586v6.424h4.614v-.528zm11.144-5.897v5.427l-4.266-5.427h-.523v6.424h.552v-5.544l4.353 5.544h.435v-6.424zm7.69 5.017-.03.029c-.696.704-1.305.968-2.118.968-1.45 0-2.612-1.232-2.612-2.816v-.03c0-1.584 1.132-2.786 2.612-2.786 1.016 0 1.625.469 2.09.909l.029.03.406-.411-.03-.03c-.667-.616-1.334-1.026-2.466-1.026-1.799 0-3.192 1.466-3.192 3.344v.029c0 1.877 1.364 3.315 3.163 3.315 1.248 0 1.974-.558 2.525-1.115l.029-.03zm6.529-5.017-2.292 3.374-2.293-3.374h-.725l2.727 3.902v2.522h.58v-2.552l2.7-3.872z" fill="#fff"/><g fill="#fff"><path d="m80.304 32.73c.319 0 .58.235.58.587a.585.585 0 0 1 -.997.419.567.567 0 0 1 -.163-.419c0-.352.26-.586.58-.586zm0 1.262a.66.66 0 0 0 .667-.675.66.66 0 0 0 -.667-.674.685.685 0 0 0 -.697.674c.03.352.32.675.697.675z"/><path d="m80.042 32.907h.32c.087 0 .174.029.203.088.036.04.057.092.058.146 0 .118-.058.176-.174.206l.203.264h-.174l-.174-.235h-.146v.235h-.145v-.704h.03zm.29.352c.088 0 .146-.03.146-.118 0-.058-.058-.117-.145-.117h-.175v.235h.175z"/></g><path d="m1.968 11.791c-.68 0-1.338-.088-1.968-.248v4.86l9.2 5.368.002-.004a8.117 8.117 0 0 0 .753-3.422 8.112 8.112 0 0 0 -.753-3.422 8.062 8.062 0 0 0 -3.853-3.892 7.88 7.88 0 0 1 -3.381.76" fill="url(#b)" transform="translate(7 20)"/><path d="m9.2.294-9.2 5.367v5.883c.63.16 1.289.248 1.968.248a7.88 7.88 0 0 0 3.381-.76 8.062 8.062 0 0 0 3.853-3.891 8.093 8.093 0 0 1 -.752-3.421c0-1.224.27-2.383.752-3.423l-.002-.004z" fill="url(#d)" transform="translate(7 20)"/><path d="m9.204.293-.002.003a8.101 8.101 0 0 0 -.752 3.423 8.1 8.1 0 0 0 .752 3.42 8.053 8.053 0 0 0 3.851 3.892 7.92 7.92 0 0 1 5.35-.511v-4.858l-9.2-5.369z" fill="url(#e)" transform="translate(7 20)"/><path d="m13.053 11.031a8.055 8.055 0 0 0 -3.85 3.892 8.112 8.112 0 0 1 .752 3.422 8.117 8.117 0 0 1 -.753 3.422l.002.004 9.2-5.369v-5.882a7.951 7.951 0 0 0 -1.969-.248c-1.17 0-2.325.259-3.382.76" fill="url(#f)" transform="translate(7 20)"/></g></svg>