<?xml version="1.0" encoding="utf-8"?>
<!-- Generator: Adobe Illustrator 23.0.3, SVG Export Plug-In . SVG Version: 6.00 Build 0)  -->
<svg version="1.1" id="Layer_1" xmlns="http://www.w3.org/2000/svg" xmlns:xlink="http://www.w3.org/1999/xlink" x="0px" y="0px"
	 viewBox="0 0 19.89 16.89" style="enable-background:new 0 0 19.89 16.89;" xml:space="preserve">
<style type="text/css">
	.st0{fill-rule:evenodd;clip-rule:evenodd;fill:#FFFFFF;stroke:#FFFFFF;stroke-width:0.5;}
	.st1{fill-rule:evenodd;clip-rule:evenodd;fill:#FFFFFF;stroke:#FFFFFF;stroke-width:0.625;}
</style>
<title>H</title>
<desc>Created with Sketch.</desc>
<g id="H">
	<path id="Combined-Shape" class="st0" d="M13.72,12V6.25h-7.5v5.78c-0.6,0.08-1.2,0.18-1.74,0.28l0.05-12h1.71L6.21,4.95h7.5
		l0.02-4.64h1.74l-0.02,11.97C14.9,12.17,14.29,12.08,13.72,12z"/>
	<path id="Fill-4" class="st1" d="M15.29,14.84c-0.9-0.21-2.45-0.4-3.46-0.47l-0.99-0.04l-1.06-0.02l-1.23,0.04
		c-1.02,0.05-2.58,0.26-3.49,0.41c-1.6,0.32-3.08,0.8-4.58,1.45v0.1c2.25-0.76,4.8-1.3,7.8-1.45c0.21-0.01,0.43-0.02,0.65-0.03
		c0.34-0.01,0.69-0.02,1.05-0.02c0.01,0,0.03,0,0.04,0c0.02,0,0.03,0,0.05,0c0.87,0,1.63,0.03,2.3,0.09c2.71,0.2,5.03,0.72,7.1,1.42
		v-0.1C18.1,15.61,16.74,15.15,15.29,14.84"/>
</g>
</svg>
